<svg width="19" height="18" viewBox="0 0 19 18" fill="none" xmlns="http://www.w3.org/2000/svg">
<path d="M5.66785 13.0527V14.6855" stroke="#6D737A" stroke-width="1.08848" stroke-linecap="round" stroke-linejoin="round"/>
<path d="M13.2872 13.0527V14.6855" stroke="#6D737A" stroke-width="1.08848" stroke-linecap="round" stroke-linejoin="round"/>
<path d="M4.57935 7.06565V3.52808C4.57935 3.16723 4.72269 2.82115 4.97786 2.56599C5.23302 2.31083 5.57909 2.16748 5.93995 2.16748C6.3008 2.16748 6.64688 2.31083 6.90204 2.56599C7.1572 2.82115 7.30055 3.16723 7.30055 3.52808" stroke="#6D737A" stroke-width="1.08848" stroke-linecap="round" stroke-linejoin="round"/>
<path d="M14.3757 6.52148H10.0217V9.78693H14.3757V6.52148Z" stroke="#6D737A" stroke-width="1.08848" stroke-linecap="round" stroke-linejoin="round"/>
<path d="M14.3757 7.06592H16.5527C16.697 7.06592 16.8354 7.12326 16.9375 7.22532C17.0396 7.32739 17.0969 7.46582 17.0969 7.61016V9.78712C17.0969 10.6532 16.7529 11.4838 16.1405 12.0961C15.5281 12.7085 14.6975 13.0526 13.8315 13.0526H5.1236C4.25755 13.0526 3.42697 12.7085 2.81458 12.0961C2.20219 11.4838 1.85815 10.6532 1.85815 9.78712V7.61016C1.85815 7.46582 1.91549 7.32739 2.01756 7.22532C2.11962 7.12326 2.25805 7.06592 2.4024 7.06592H10.0218" stroke="#6D737A" stroke-width="1.08848" stroke-linecap="round" stroke-linejoin="round"/>
</svg>
