<svg width="18" height="18" viewBox="0 0 18 18" fill="none" xmlns="http://www.w3.org/2000/svg">
<path d="M1.08847 8.1543H16.3272" stroke="#6D737A" stroke-width="1.08848" stroke-linecap="round" stroke-linejoin="round"/>
<path d="M15.2388 12.5083V14.141C15.2388 14.2854 15.1814 14.4238 15.0793 14.5259C14.9773 14.6279 14.8389 14.6853 14.6945 14.6853H13.0618C12.9174 14.6853 12.779 14.6279 12.677 14.5259C12.5749 14.4238 12.5175 14.2854 12.5175 14.141V12.5083" stroke="#6D737A" stroke-width="1.08848" stroke-linecap="round" stroke-linejoin="round"/>
<path d="M4.89818 12.5083V14.141C4.89818 14.2854 4.84084 14.4238 4.73877 14.5259C4.63671 14.6279 4.49828 14.6853 4.35394 14.6853H2.72121C2.57687 14.6853 2.43844 14.6279 2.33638 14.5259C2.23431 14.4238 2.17697 14.2854 2.17697 14.141V12.5083" stroke="#6D737A" stroke-width="1.08848" stroke-linecap="round" stroke-linejoin="round"/>
<path d="M4.35394 10.3315H5.44243" stroke="#6D737A" stroke-width="1.08848" stroke-linecap="round" stroke-linejoin="round"/>
<path d="M11.9733 10.3315H13.0618" stroke="#6D737A" stroke-width="1.08848" stroke-linecap="round" stroke-linejoin="round"/>
<path d="M15.2388 8.15452L13.2047 3.58289C13.1625 3.48618 13.093 3.40382 13.0049 3.34584C12.9167 3.28786 12.8136 3.25677 12.708 3.25635H4.70769C4.60217 3.25677 4.49904 3.28786 4.41087 3.34584C4.3227 3.40382 4.25328 3.48618 4.21107 3.58289L2.17697 8.15452V12.5084H15.2388V8.15452Z" stroke="#6D737A" stroke-width="1.08848" stroke-linecap="round" stroke-linejoin="round"/>
</svg>
